# xmcd
#
# Track frame offsets: 
#        150
#        11977
#        24252
#        35835
#        53565
#        68067
#        81707
#        94817
#        107297
#        121015
#        136110
#        147387
#        162877
#        172855
#        185262
#        199650
#        213325
#        224067
#        238877
#        255270
#        265807
#        279245
#        294860
#        309645
#        324180
#
# Disc length: 4524 seconds
#
# Revision: 9
# Processed by: cddbd v1.5.2PL0 Copyright (c) Steve Scherf et al.
# Submitted via: ExactAudioCopyFreeDBPlugin 1.0
#
DISCID=5e11aa19
DTITLE=Various Artist - The Complete Stax-Volt Singles, 1959-1975
DYEAR=1993
DGENRE=Soul
TTITLE0=The Newcomers - Open Up Your Heart (Let Me In)
TTITLE1=Eddie Floyd - Why is the Wine Sweeter (On the Other Side)
TTITLE2=The Staple Singers - When Will We Be Paid
TTITLE3=John Lee Hooker - Grinder Man
TTITLE4=William Bell - Born Under a Bad Sign
TTITLE5=Margie Joseph - What You Gonna Do
TTITLE6=Jimmy Hughes - I'm So Glad
TTITLE7=Darrell Banks - Beautiful Feelings
TTITLE8=The Dramatics - Your Love Was Strange
TTITLE9=Johnnie Taylor - Love Bones
TTITLE10=Delaney &d Bonnie - Hard to Say Goodbye
TTITLE11=J.J. Barnes - Got to Get Rid of You
TTITLE12=Reggie Milner - Habit Forming Love
TTITLE13=T.S.U. Toronadoes - My Thing is a Moving Thing
TTITLE14=The Emotions - Stealing Love
TTITLE15=The Emotions - When Tomorrow Comes
TTITLE16=Albert King - Wrapped Up in Love Again
TTITLE17=Rufus Thomas - Do the Funky Chicken
TTITLE18=Eddie Floyd - California Girl
TTITLE19=Bernie Hayes - Tribute to a Black Woman (Part 1)
TTITLE20=The Bar-Kays - Sang and Dance
TTITLE21=The Soul Children - Hold on I'm Comin'
TTITLE22=Chuck Brooks - Love's Gonna Tear Your Playhouse Down (Part 1)
TTITLE23=Ernie Hines - Help Me Put Out the Flame (In My Heart)
TTITLE24=Roebuck "Pop" Staples - Black Boy
EXTD=
EXTT0=
EXTT1=
EXTT2=
EXTT3=
EXTT4=
EXTT5=
EXTT6=
EXTT7=
EXTT8=
EXTT9=
EXTT10=
EXTT11=
EXTT12=
EXTT13=
EXTT14=
EXTT15=
EXTT16=
EXTT17=
EXTT18=
EXTT19=
EXTT20=
EXTT21=
EXTT22=
EXTT23=
EXTT24=
PLAYORDER=
